<svg width="160" height="83" viewBox="0 0 160 83" fill="none" xmlns="http://www.w3.org/2000/svg">
<path d="M8.81838 20.7324L0 43.3541H4.19784L6.15829 38.1797H15.2026L17.1485 43.3541H21.5139L12.7611 20.7324H8.81838ZM7.55029 34.5285L9.04431 30.5857C9.19736 30.1557 9.36498 29.6747 9.54718 29.1354C9.72937 28.5961 9.91886 28.0349 10.1156 27.4519C10.3124 26.8689 10.4946 26.3077 10.6622 25.7757C10.6768 25.7319 10.6914 25.6809 10.706 25.6372C10.8736 26.1984 11.0631 26.796 11.2744 27.4446C11.493 28.1005 11.6898 28.7127 11.872 29.2666C12.0542 29.8278 12.2 30.2359 12.3093 30.4982L13.8325 34.5357H7.55029V34.5285Z" fill="white"/>
<path d="M27.1765 43.3541H31.3743V24.6096H38.0355V20.7324H20.7121V24.6096H27.1765V43.3541Z" fill="white"/>
<path d="M52.4221 36.9116L45.6152 20.7324H41.3591V43.3541H45.5278V34.8564C45.5278 32.7648 45.4767 30.9647 45.382 29.4415C45.3674 29.201 45.3456 28.9605 45.331 28.7273L51.2196 43.3979H53.355L59.4185 28.6908C59.3894 28.9969 59.3675 29.3103 59.3529 29.6164C59.2509 31.1687 59.2072 32.9105 59.2072 34.8491V43.3468H63.3759V20.7324H59.3311L52.4221 36.9116Z" fill="white"/>
<path d="M8.69449 60.7359C8.42484 61.4064 8.19162 61.9967 8.00942 62.5069C7.83451 63.0024 7.65232 63.5053 7.48469 64.0227C7.43368 64.1758 7.38266 64.3361 7.32436 64.511L7.3025 64.5766L7.26606 64.4746C7.13487 64.0811 7.00369 63.7094 6.87251 63.3523C6.74133 62.9952 6.61014 62.6235 6.47167 62.2299C6.34778 61.8801 6.18745 61.4501 5.9761 60.8889L1.54504 49.0315H0L6.4571 66.2018L6.47896 66.2601H8.00942L14.8018 49.0315H13.3005L8.69449 60.7359Z" fill="white"/>
<path d="M19.6118 49.0315H18.2198V66.2601H19.6118V49.0315Z" fill="white"/>
<path d="M34.093 58.6078C34.8582 58.1851 35.4704 57.6021 35.9004 56.8587C36.3376 56.1154 36.5563 55.2408 36.5563 54.2569C36.5563 53.2731 36.3231 52.3767 35.8639 51.5968C35.4048 50.817 34.7634 50.1903 33.9691 49.7239C33.1747 49.2647 32.2491 49.0315 31.2361 49.0315H25.0122V66.2601H26.4042V59.2419H31.4839C31.5203 59.2419 31.5568 59.2419 31.5932 59.2346C31.6005 59.2346 31.6078 59.2346 31.6151 59.2346L35.6744 66.2601H37.2851L33.0799 59.0232C33.4443 58.9139 33.7796 58.7754 34.093 58.6078ZM34.6541 56.1445C34.3626 56.6838 33.9472 57.1065 33.4298 57.4053C32.905 57.7041 32.3001 57.8572 31.6224 57.8572H26.3969V50.4235H31.1632C31.9212 50.4235 32.6135 50.5911 33.2038 50.9264C33.7942 51.2543 34.2679 51.7207 34.5958 52.3038C34.9311 52.8868 35.0987 53.5646 35.0987 54.308C35.0987 54.9857 34.9456 55.6052 34.6541 56.1445Z" fill="white"/>
<path d="M37.3797 50.4235H42.3792V66.2601H43.7639V50.4235H48.9311V49.0315H37.3797V50.4235Z" fill="white"/>
<path d="M62.2097 59.4241C62.2097 60.51 61.9765 61.4866 61.5247 62.332C61.0728 63.1773 60.4388 63.8478 59.6444 64.3216C58.85 64.8026 57.9244 65.0431 56.8895 65.0431C55.8984 65.0431 55.002 64.8026 54.2294 64.3216C53.4496 63.8478 52.8302 63.1773 52.3856 62.332C51.941 61.4866 51.7151 60.51 51.7151 59.4241V49.0315H50.3231V59.6427C50.3231 60.9472 50.6074 62.1279 51.1612 63.1409C51.7224 64.1612 52.5022 64.9702 53.4934 65.5532C54.4845 66.1362 55.6287 66.4278 56.8895 66.4278C58.1795 66.4278 59.3456 66.129 60.344 65.5532C61.3425 64.9775 62.1368 64.1612 62.7126 63.1482C63.2883 62.1352 63.5799 60.9545 63.5799 59.6427V49.0315H62.217V59.4241H62.2097Z" fill="white"/>
<path d="M72.7843 49.0315H71.006L64.4615 66.2601H65.9118L67.8504 61.1222H75.7869L77.7109 66.2601H79.256L72.8062 49.0898L72.7843 49.0315ZM71.8441 50.3652L71.9899 50.8097C72.1138 51.196 72.245 51.5823 72.3835 51.9467C72.5146 52.3038 72.6458 52.6755 72.7843 53.069C72.9155 53.4407 73.0758 53.878 73.2872 54.41L75.2768 59.7302H68.3824L70.3283 54.5557L70.4522 54.2205C70.5979 53.8342 70.7218 53.4917 70.8384 53.1783L70.8603 53.12C70.9988 52.741 71.1372 52.3767 71.2611 52.0341C71.3996 51.677 71.5308 51.298 71.6765 50.8753C71.7275 50.715 71.7858 50.5474 71.8441 50.3652Z" fill="white"/>
<path d="M82.9657 64.8681V49.0315H81.5737V66.2601H91.3177V64.8681H82.9657Z" fill="white"/>
</svg>
