<svg width="160" height="82" viewBox="0 0 160 82" fill="none" xmlns="http://www.w3.org/2000/svg">
<g clip-path="url(#clip0_1442_985)">
<mask id="mask0_1442_985" style="mask-type:luminance" maskUnits="userSpaceOnUse" x="-23" y="-13" width="197" height="108">
<path d="M-23 -13H173.332V94.0845H-23V-13Z" fill="white"/>
</mask>
<g mask="url(#mask0_1442_985)">
<path d="M112.945 36.1163H115.242L107.448 22.6168C106.171 20.4072 106.269 17.9341 107.297 15.952H93.5124C88.2733 15.952 84.9995 21.6239 87.619 26.1608L105.626 57.3501C108.214 61.8325 114.635 61.8826 117.315 57.5069L108.955 43.0269C107.182 39.9555 109.398 36.1163 112.945 36.1163Z" fill="#42FFA3"/>
<path d="M122.696 49.0285L122.457 48.6142L117.413 57.3494C117.382 57.4038 117.348 57.4539 117.315 57.5069L122.554 66.5821C124.327 69.6536 128.761 69.6536 130.534 66.5821L144.134 43.0269C145.577 40.5266 144.376 37.5177 141.966 36.4851L134.725 49.0285C132.051 53.6582 125.37 53.6582 122.696 49.0285Z" fill="#FE0000"/>
<path d="M122.457 48.6141L115.242 36.1163H112.945C109.398 36.1163 107.182 39.9554 108.955 43.0276L117.315 57.5076C117.347 57.4546 117.382 57.4038 117.413 57.3501L122.457 48.6141Z" fill="#FFE06A"/>
<path d="M143.959 12.2004H113.461C110.668 12.2004 108.424 13.7821 107.297 15.9527H129.526C134.765 15.9527 138.04 21.6238 135.421 26.1607L129.672 36.1162H140.144C140.803 36.1162 141.416 36.2495 141.967 36.485L149.973 22.6167C152.646 17.987 149.305 12.2004 143.959 12.2004Z" fill="#940BFF"/>
<path d="M107.447 22.6168L115.241 36.1163H129.673L135.42 26.1608C138.04 21.6231 134.765 15.952 129.527 15.952H107.297C106.268 17.9341 106.171 20.4072 107.447 22.6168Z" fill="#00C3FF"/>
<path d="M129.672 36.1163L122.457 48.6141L122.696 49.0285C125.369 53.6581 132.051 53.6581 134.724 49.0285L141.966 36.4851C141.416 36.2495 140.803 36.1163 140.144 36.1163H129.672Z" fill="#FF73B3"/>
<path d="M122.457 48.6141L129.672 36.1163H115.242L122.457 48.6141Z" fill="white"/>
</g>
</g>
<defs>
<clipPath id="clip0_1442_985">
<rect width="160" height="81.1943" fill="white"/>
</clipPath>
</defs>
</svg>
