<?xml version="1.0" encoding="UTF-8"?> <!-- Generator: Adobe Illustrator 27.8.0, SVG Export Plug-In . SVG Version: 6.00 Build 0) --> <svg xmlns="http://www.w3.org/2000/svg" xmlns:xlink="http://www.w3.org/1999/xlink" id="Layer_1" x="0px" y="0px" viewBox="0 0 415 108.1" style="enable-background:new 0 0 415 108.1;" xml:space="preserve"> <style type="text/css"> .st0{fill:#00AEEF;} .st1{fill:#FFFFFF;} </style> <g> <g> <path class="st0" d="M232.2,31.9c-0.4-0.3-0.8-0.5-1.2-0.5h-20.3c-0.5,0-0.9,0.2-1.2,0.5c-0.4,0.4-0.5,0.8-0.5,1.2v9.8 c0,0.5,0.2,0.9,0.5,1.2c0.3,0.3,0.8,0.5,1.2,0.5h4.5v18.8h-11.5c-0.5,0-0.9,0.2-1.2,0.5c-0.4,0.4-0.5,0.8-0.5,1.2V75 c0,0.5,0.2,0.9,0.5,1.2c0.3,0.3,0.8,0.5,1.2,0.5h27.2c0.5,0,0.9-0.2,1.2-0.5c0.3-0.4,0.5-0.8,0.5-1.2V33.2 C232.7,32.7,232.5,32.3,232.2,31.9z"></path> <path class="st0" d="M252.7,76.7h-12.2c-0.4,0-0.7-0.1-1-0.4c-0.3-0.3-0.4-0.5-0.4-0.8c0-0.3,0-0.5,0.1-0.6l14.1-41.4 c0.4-1.4,1.4-2.1,2.9-2.1h18c1.6,0,2.5,0.7,2.9,2.1l14.1,41.4c0,0.1,0.1,0.3,0.1,0.6c0,0.3-0.1,0.5-0.4,0.8 c-0.3,0.3-0.6,0.4-1,0.4h-12.2c-1.4,0-2.4-0.7-2.9-2.2L273,70h-15.8l-1.6,4.5C255,76,254,76.7,252.7,76.7z M269.7,57.4l-4.6-13.5 l-4.6,13.5H269.7z"></path> <path class="st0" d="M320.5,31.4h13.5c0.4,0,0.7,0.1,1,0.4c0.3,0.3,0.4,0.6,0.4,0.9c0,0.3-0.1,0.6-0.2,0.8l-16.3,27V75 c0,0.5-0.2,0.9-0.5,1.2c-0.3,0.3-0.8,0.5-1.2,0.5h-13.8c-0.5,0-0.9-0.2-1.2-0.5c-0.3-0.4-0.5-0.8-0.5-1.2V60.5l-16.2-27 c-0.1-0.3-0.2-0.5-0.2-0.8c0-0.3,0.1-0.6,0.4-0.9c0.3-0.3,0.6-0.4,1-0.4h13.7c1.2,0,2.1,0.5,2.7,1.5l7.3,12.8l7.5-12.7 C318.5,31.9,319.4,31.4,320.5,31.4z"></path> <path class="st0" d="M342.6,76.7h-12.2c-0.4,0-0.7-0.1-1-0.4c-0.3-0.3-0.4-0.5-0.4-0.8c0-0.3,0-0.5,0.1-0.6l14.1-41.4 c0.4-1.4,1.4-2.1,2.9-2.1h18c1.6,0,2.5,0.7,2.9,2.1l14.1,41.4c0,0.1,0.1,0.3,0.1,0.6c0,0.3-0.1,0.5-0.4,0.8 c-0.3,0.3-0.6,0.4-1,0.4h-12.2c-1.4,0-2.4-0.7-2.9-2.2l-1.6-4.5h-15.8l-1.6,4.5C345,76,344,76.7,342.6,76.7z M359.6,57.4L355,43.9 l-4.6,13.5H359.6z"></path> </g> <g> <path class="st1" d="M35.6,31.4h24.2c6.1,0,11,1.5,14.6,4.5c3.6,3,5.4,6.8,5.4,11.5s-1.5,8.4-4.5,11.1c-3,2.7-8.2,4.1-15.4,4.1 h-8.5V75c0,0.5-0.2,0.9-0.5,1.2c-0.4,0.3-0.8,0.5-1.2,0.5H35.6c-0.5,0-0.9-0.2-1.2-0.5c-0.3-0.4-0.5-0.8-0.5-1.2V33.2 c0-0.5,0.2-0.9,0.5-1.2C34.7,31.6,35.1,31.4,35.6,31.4z M51.3,43.4v7.1h8.2c1,0,1.8-0.3,2.4-0.9c0.6-0.6,0.9-1.5,0.9-2.5 c0-1.1-0.3-2-0.9-2.7c-0.6-0.7-1.4-1-2.5-1H51.3z"></path> <path class="st1" d="M102.4,75c0,0.5-0.2,0.9-0.5,1.2c-0.4,0.3-0.8,0.5-1.2,0.5h-14c-0.5,0-0.9-0.2-1.2-0.5 C85.1,75.8,85,75.4,85,75V33.2c0-0.5,0.2-0.9,0.5-1.2c0.3-0.3,0.8-0.5,1.2-0.5h14.1c0.5,0,0.9,0.2,1.2,0.5 c0.3,0.4,0.5,0.8,0.5,1.2L102.4,75z"></path> <path class="st1" d="M156.6,74.6c0.1,0.2,0.2,0.4,0.2,0.8c0,0.4-0.1,0.7-0.4,0.9c-0.3,0.3-0.6,0.4-1,0.4h-13.9 c-1.2,0-2-0.5-2.6-1.5l-6.3-9.6l-6.1,9.6c-0.6,1-1.5,1.5-2.7,1.5h-14c-0.4,0-0.7-0.1-1-0.4c-0.3-0.3-0.4-0.6-0.4-0.9 c0-0.3,0.1-0.6,0.2-0.8l14.3-21.9L110,33.5c-0.1-0.2-0.2-0.4-0.2-0.8c0-0.3,0.1-0.7,0.4-0.9c0.3-0.3,0.6-0.4,1-0.4h14 c1.1,0,2,0.5,2.7,1.6l5,8.3l5.4-8.4c0.7-1,1.6-1.5,2.6-1.5H155c0.4,0,0.7,0.1,1,0.4c0.3,0.3,0.4,0.6,0.4,0.9 c0,0.4-0.1,0.6-0.2,0.8l-13.5,20L156.6,74.6z"></path> <path class="st1" d="M181.5,63.4H193c0.5,0,0.9,0.2,1.2,0.5c0.4,0.4,0.5,0.8,0.5,1.2V75c0,0.5-0.2,0.9-0.5,1.2 c-0.3,0.3-0.8,0.5-1.2,0.5h-27.2c-0.5,0-0.9-0.2-1.2-0.5c-0.3-0.4-0.5-0.8-0.5-1.2V33.2c0-0.5,0.2-0.9,0.5-1.2 c0.4-0.3,0.8-0.5,1.2-0.5h14c0.5,0,0.9,0.2,1.2,0.5c0.3,0.4,0.5,0.8,0.5,1.2V63.4z"></path> </g> </g> </svg> 